{"glyphs":{":":{"x_min":0,"x_max":278,"ha":278,"o":"m 123 427 l 143 528 l 238 528 l 218 427 z m 40 0 l 60 101 l 155 101 l 135 0 z"},"$":{"x_min":0,"x_max":556,"ha":556,"o":"m 523 208 q 523 117 456 66 q 389 14 264 10 l 249 -68 l 193 -68 l 208 11 q 110 18 59 62 q 7 106 -6 184 l 74 202 q 86 146 121 117 q 157 88 222 83 l 269 324 q 196 344 161 366 q 125 388 107 420 q 88 451 88 497 q 88 552 120 592 q 152 632 209 654 q 266 676 337 676 l 350 740 l 405 740 l 392 673 q 468 664 513 627 q 559 591 571 531 l 495 509 q 473 590 379 604 l 337 388 q 433 362 478 317 q 523 272 523 208 z m 433 202 q 433 240 408 264 q 384 289 322 309 l 278 83 q 433 91 433 202 z m 177 497 q 177 464 199 443 q 221 422 284 403 l 324 605 q 253 603 215 575 q 177 547 177 497 z"},"?":{"x_min":0,"x_max":556,"ha":556,"o":"m 342 698 q 438 698 496 649 q 553 601 553 524 q 553 477 538 443 q 523 410 500 385 q 476 360 447 342 q 417 324 388 307 q 326 272 302 245 q 278 217 271 184 l 186 184 q 192 223 209 252 q 226 281 252 304 q 277 327 343 364 q 395 394 417 414 q 439 434 451 458 q 462 483 462 514 q 462 562 426 591 q 391 620 334 620 q 266 620 221 586 q 177 552 158 492 l 78 512 q 108 607 175 653 q 242 698 342 698 z m 146 0 l 165 98 l 260 98 l 241 0 z"},"<":{"x_min":0,"x_max":584,"ha":584,"o":"m 64 279 l 64 379 l 550 583 l 550 508 l 131 329 l 550 150 l 550 75 z"},"'":{"x_min":0,"x_max":191,"ha":191,"o":"m 167 472 l 99 472 l 129 688 l 219 688 z"},"=":{"x_min":0,"x_max":584,"ha":584,"o":"m 63 418 l 63 490 l 549 490 l 549 418 z m 63 168 l 63 240 l 549 240 l 549 168 z"},"a":{"x_min":0,"x_max":556,"ha":556,"o":"m 453 -5 q 407 -5 386 14 q 366 33 366 70 l 368 101 l 365 101 q 325 40 281 15 q 238 -10 176 -10 q 108 -10 65 31 q 22 72 22 136 q 22 226 87 272 q 152 319 293 321 l 407 322 q 416 370 416 384 q 416 429 390 450 q 364 471 318 471 q 260 471 230 450 q 201 430 188 387 l 101 401 q 123 473 177 506 q 231 538 323 538 q 407 538 455 499 q 504 460 504 394 q 504 363 495 317 l 458 133 q 453 109 453 90 q 453 54 493 54 q 506 54 522 58 l 515 3 q 483 -5 453 -5 z m 395 262 l 298 260 q 240 258 207 249 q 173 240 155 226 q 137 212 126 191 q 116 170 116 140 q 116 103 139 80 q 163 57 201 57 q 248 57 286 77 q 324 98 349 130 q 374 163 382 201 z"},"L":{"x_min":0,"x_max":556,"ha":556,"o":"m 31 0 l 164 688 l 257 688 l 139 76 l 486 76 l 472 0 z"},"3":{"x_min":0,"x_max":556,"ha":556,"o":"m 276 388 q 366 388 410 424 q 454 459 454 528 q 454 573 425 600 q 395 626 346 626 q 288 626 246 596 q 204 566 188 512 l 101 519 q 129 610 194 654 q 259 698 351 698 q 442 698 495 653 q 547 608 547 530 q 547 456 500 408 q 453 361 368 350 l 367 348 q 431 335 467 297 q 502 259 502 199 q 502 138 473 90 q 443 42 387 16 q 332 -10 257 -10 q 194 -10 146 12 q 99 33 67 73 q 36 112 23 165 l 104 188 q 118 132 161 97 q 204 63 264 63 q 333 63 372 99 q 411 136 411 197 q 411 252 374 282 q 337 312 274 312 l 214 312 l 229 388 z"},";":{"x_min":0,"x_max":278,"ha":278,"o":"m 79 -128 l 19 -128 q 77 -61 89 0 l 46 0 l 66 101 l 161 101 l 146 25 q 138 -21 122 -58 q 105 -95 79 -128 z m 129 427 l 149 528 l 244 528 l 225 427 z"},"J":{"x_min":0,"x_max":500,"ha":500,"o":"m 186 -10 q 108 -10 59 36 q 10 81 -2 167 l 80 184 q 91 126 118 96 q 146 66 194 66 q 246 66 277 101 q 309 137 324 215 l 400 612 l 258 612 l 273 688 l 508 688 l 414 207 q 393 97 337 44 q 281 -10 186 -10 z"},"V":{"x_min":0,"x_max":667,"ha":667,"o":"m 331 0 l 234 0 l 86 688 l 181 688 l 278 204 l 295 82 l 360 204 l 643 688 l 745 688 z"},"\"":{"x_min":0,"x_max":355,"ha":355,"o":"m 340 472 l 271 472 l 302 688 l 392 688 z m 160 472 l 91 472 l 122 688 l 212 688 z"},"7":{"x_min":0,"x_max":556,"ha":556,"o":"m 212 0 l 121 0 q 141 100 181 189 q 222 279 283 368 q 344 456 481 613 l 104 613 l 118 688 l 587 688 l 573 617 q 464 489 423 435 q 381 381 348 331 q 315 280 289 228 q 263 176 244 119 q 225 62 212 0 z"},"S":{"x_min":0,"x_max":667,"ha":667,"o":"m 301 -10 q 179 -10 112 33 q 45 77 28 165 l 115 183 q 128 120 173 92 q 219 63 308 63 q 415 63 464 95 q 513 127 513 193 q 513 226 499 246 q 485 266 451 281 q 417 297 333 321 q 250 344 208 368 q 167 392 146 426 q 125 460 125 508 q 125 597 199 648 q 274 698 402 698 q 510 698 575 661 q 640 624 656 553 l 572 528 q 556 579 514 604 q 472 628 402 628 q 218 628 218 513 q 218 483 231 465 q 243 446 272 432 q 300 418 385 396 q 480 369 522 345 q 564 320 586 285 q 608 250 608 199 q 608 99 533 44 q 457 -10 301 -10 z"},"}":{"x_min":0,"x_max":334,"ha":334,"o":"m 150 725 q 205 725 237 692 q 269 660 269 603 q 269 572 264 545 l 236 405 q 232 384 232 368 q 232 327 255 309 q 277 292 319 290 l 307 228 q 253 226 222 198 q 190 169 179 112 l 145 -64 q 131 -134 94 -171 q 58 -208 -12 -208 l -78 -208 l -65 -145 l -35 -145 q 9 -145 32 -122 q 56 -99 68 -40 l 102 134 q 111 181 143 214 q 175 247 220 257 l 220 258 q 187 267 167 291 q 147 315 147 354 q 147 367 150 382 l 180 538 q 182 550 184 570 q 186 589 186 598 l 186 601 q 186 628 169 645 q 152 662 115 662 l 91 662 l 104 725 z"},"Z":{"x_min":0,"x_max":611,"ha":611,"o":"m 528 0 l -20 0 l -6 70 l 508 612 l 135 612 l 149 688 l 639 688 l 625 620 l 111 76 l 543 76 z"},"x":{"x_min":0,"x_max":500,"ha":500,"o":"m 345 0 l 243 217 l 57 0 l -40 0 l 200 271 l 71 528 l 164 528 l 258 323 l 429 528 l 529 528 l 300 272 l 438 0 z"},")":{"x_min":0,"x_max":333,"ha":333,"o":"m -97 -207 q 185 42 185 390 q 185 580 84 725 l 169 725 q 273 580 273 382 q 273 200 200 50 q 127 -100 -12 -207 z"},"&":{"x_min":0,"x_max":667,"ha":667,"o":"m 609 334 q 542 180 467 102 q 487 83 511 73 q 536 63 559 63 q 588 63 613 71 l 607 5 q 578 -6 546 -6 q 473 -6 414 54 q 327 -10 215 -10 q 123 -10 69 39 q 16 88 16 171 q 16 248 62 298 q 107 348 226 394 q 212 452 212 506 q 212 590 265 641 q 318 692 407 692 q 474 692 516 657 q 559 622 559 564 q 559 507 519 465 q 479 423 376 383 l 315 358 q 353 249 422 154 q 451 187 479 233 q 507 279 545 361 z m 221 54 q 300 54 368 104 q 332 147 299 207 q 267 267 245 330 q 163 297 131 262 q 99 227 99 173 q 99 119 133 86 q 166 54 221 54 z m 289 508 q 289 470 298 421 q 337 436 371 448 q 404 461 429 477 q 455 492 469 512 q 483 532 483 561 q 483 592 461 613 q 439 633 403 633 q 349 633 319 600 q 289 567 289 508 z"},"_":{"x_min":0,"x_max":556,"ha":556,"o":"m -78 -122 l -78 -85 l 497 -85 l 497 -122 z"},"v":{"x_min":0,"x_max":500,"ha":500,"o":"m 248 0 l 144 0 l 55 528 l 146 528 l 195 185 q 200 151 205 95 l 207 69 l 219 95 q 241 141 265 184 l 452 528 l 548 528 z"},"O":{"x_min":0,"x_max":778,"ha":778,"o":"m 458 698 q 593 698 672 622 q 750 545 750 416 q 748 285 695 189 q 643 94 552 42 q 461 -10 346 -10 q 208 -10 131 67 q 54 144 54 280 q 54 396 106 494 q 157 592 250 645 q 342 698 458 698 z m 454 623 q 356 623 288 580 q 220 536 184 450 q 147 363 147 275 q 147 173 199 119 q 251 66 351 66 q 447 66 514 108 q 582 150 619 235 q 657 319 657 414 q 657 515 604 569 q 551 623 454 623 z"},"(":{"x_min":0,"x_max":333,"ha":333,"o":"m 417 725 q 135 476 135 128 q 135 -62 236 -207 l 151 -207 q 47 -62 47 136 q 47 317 120 467 q 193 617 333 725 z"},"C":{"x_min":0,"x_max":722,"ha":722,"o":"m 663 165 q 602 73 523 31 q 445 -10 342 -10 q 253 -10 188 26 q 123 61 89 126 q 55 192 55 278 q 55 398 106 495 q 158 592 249 645 q 340 698 452 698 q 558 698 631 654 q 704 610 728 530 l 640 503 q 622 558 572 590 q 521 622 447 622 q 357 622 289 579 q 221 536 184 457 q 147 379 147 276 q 147 179 201 122 q 254 66 348 66 q 420 66 483 102 q 545 138 593 208 z"},"W":{"x_min":0,"x_max":944,"ha":944,"o":"m 687 0 l 578 0 l 543 437 q 536 571 535 595 q 498 498 469 437 l 265 0 l 156 0 l 86 688 l 183 688 l 221 251 q 227 175 229 82 q 268 174 293 229 q 318 285 509 688 l 599 688 l 635 260 q 642 185 644 82 l 651 99 q 675 155 689 189 q 704 223 924 688 l 1022 688 z"},"A":{"x_min":0,"x_max":667,"ha":667,"o":"m 518 0 l 481 201 l 169 201 l 52 0 l -49 0 l 365 688 l 471 688 l 613 0 z m 405 618 q 399 605 387 584 q 375 563 210 274 l 468 274 l 418 544 z"},"f":{"x_min":0,"x_max":278,"ha":278,"o":"m 212 464 l 122 0 l 34 0 l 124 464 l 50 464 l 62 528 l 137 528 l 148 588 q 159 643 177 670 q 196 697 226 711 q 256 725 304 725 q 340 725 364 719 l 352 652 l 330 655 l 307 656 q 276 656 260 640 q 244 624 234 576 l 225 528 l 328 528 l 315 464 z"},"Q":{"x_min":0,"x_max":778,"ha":778,"o":"m 453 698 q 588 698 667 622 q 745 545 745 416 q 743 296 699 207 q 656 117 579 62 q 502 7 401 -6 q 410 -65 434 -92 q 458 -119 507 -119 q 535 -119 567 -113 l 558 -178 q 521 -189 476 -189 q 402 -189 362 -147 q 323 -105 312 -8 q 188 0 119 76 q 49 151 49 280 q 49 396 101 494 q 152 592 245 645 q 337 698 453 698 z m 449 623 q 351 623 283 580 q 215 536 179 450 q 143 363 143 275 q 143 173 195 119 q 247 66 346 66 q 442 66 510 108 q 577 150 615 235 q 652 319 652 414 q 652 515 599 569 q 546 623 449 623 z"},"w":{"x_min":0,"x_max":722,"ha":722,"o":"m 521 0 l 419 0 l 401 341 l 398 456 q 384 419 372 392 q 360 364 196 0 l 95 0 l 50 528 l 137 528 l 156 169 l 160 73 l 199 166 l 366 528 l 460 528 l 481 166 q 484 113 484 73 q 500 111 690 528 l 776 528 z"},"-":{"x_min":0,"x_max":333,"ha":333,"o":"m 51 227 l 66 305 l 311 305 l 295 227 z"},"E":{"x_min":0,"x_max":667,"ha":667,"o":"m 31 0 l 164 688 l 676 688 l 662 612 l 243 612 l 200 391 l 589 391 l 575 316 l 185 316 l 139 76 l 578 76 l 563 0 z"},"s":{"x_min":0,"x_max":500,"ha":500,"o":"m 443 155 q 443 76 382 33 q 322 -10 208 -10 q 123 -10 73 19 q 22 47 2 109 l 74 136 q 90 93 124 74 q 158 54 215 54 q 285 54 321 78 q 357 102 357 147 q 357 177 333 198 q 308 218 227 243 q 165 263 133 283 q 102 302 85 328 q 69 354 69 389 q 69 460 125 498 q 182 537 285 537 q 458 537 479 412 l 400 400 q 389 438 359 456 q 330 473 279 473 q 219 473 186 453 q 154 434 154 399 q 154 378 164 364 q 174 350 194 339 q 213 328 283 306 q 345 287 376 267 q 408 247 425 219 q 443 192 443 155 z"},">":{"x_min":0,"x_max":584,"ha":584,"o":"m 64 75 l 64 150 l 483 329 l 64 508 l 64 583 l 550 379 l 550 279 z"},"l":{"x_min":0,"x_max":222,"ha":222,"o":"m 16 0 l 157 725 l 245 725 l 104 0 z"},"8":{"x_min":0,"x_max":556,"ha":556,"o":"m 344 698 q 437 698 494 653 q 550 608 550 533 q 550 464 508 417 q 466 369 394 358 l 394 356 q 447 340 476 302 q 504 265 504 211 q 504 109 435 50 q 366 -10 244 -10 q 140 -10 83 40 q 26 89 26 176 q 26 249 71 300 q 115 350 201 369 l 201 371 q 156 390 132 427 q 107 463 107 514 q 107 600 171 649 q 234 698 344 698 z m 321 396 q 387 396 423 431 q 459 466 459 531 q 459 579 427 605 q 396 632 333 632 q 269 632 232 599 q 195 566 195 504 q 195 454 229 425 q 262 396 321 396 z m 276 328 q 200 328 158 288 q 117 247 117 174 q 117 119 153 88 q 189 57 253 57 q 326 57 370 99 q 415 141 415 213 q 415 267 378 298 q 340 328 276 328 z"},"\\":{"x_min":0,"x_max":278,"ha":278,"o":"m 156 -10 l 71 725 l 144 725 l 230 -10 z"},"e":{"x_min":0,"x_max":556,"ha":556,"o":"m 125 246 q 122 229 121 190 q 121 125 153 91 q 186 56 251 56 q 298 56 337 80 q 375 103 397 144 l 464 113 q 429 49 374 20 q 319 -10 241 -10 q 143 -10 88 45 q 34 99 34 198 q 34 296 68 374 q 103 452 166 495 q 229 538 308 538 q 408 538 463 488 q 519 438 519 346 q 519 294 507 246 z m 430 313 l 432 348 q 432 409 400 441 q 369 473 310 473 q 244 473 199 431 q 155 390 137 313 z"},"b":{"x_min":0,"x_max":556,"ha":556,"o":"m 363 538 q 440 538 483 492 q 525 446 525 365 q 525 266 495 173 q 465 80 411 35 q 356 -10 272 -10 q 212 -10 174 16 q 137 41 121 87 l 120 87 q 116 69 108 35 q 100 1 99 0 l 14 0 q 17 7 24 40 q 31 73 38 109 l 158 725 l 246 725 l 205 518 q 201 496 188 450 l 190 450 q 226 496 266 517 q 305 538 363 538 z m 338 470 q 290 470 255 450 q 221 431 197 391 q 173 351 159 291 q 146 231 146 184 q 146 123 177 89 q 208 55 263 55 q 323 55 358 92 q 394 129 414 209 q 434 290 434 350 q 434 410 411 440 q 388 470 338 470 z"},"%":{"x_min":0,"x_max":889,"ha":889,"o":"m 208 0 l 127 0 l 706 688 l 788 688 z m 266 694 q 327 694 360 655 q 393 617 393 543 q 393 492 379 435 q 366 379 339 338 q 312 297 277 277 q 242 256 198 256 q 138 256 104 296 q 71 336 71 411 q 71 482 94 552 q 117 622 160 658 q 203 694 266 694 z m 266 641 q 233 641 212 626 q 191 611 175 578 q 160 546 149 494 q 139 441 139 404 q 139 311 200 311 q 242 311 269 344 q 295 376 310 441 q 325 505 325 552 q 325 641 266 641 z m 720 432 q 781 432 813 394 q 846 355 846 282 q 846 230 833 174 q 820 117 793 76 q 766 36 731 15 q 695 -6 652 -6 q 591 -6 558 34 q 525 75 525 149 q 525 221 548 290 q 570 360 613 396 q 656 432 720 432 z m 719 379 q 687 379 666 364 q 645 349 629 317 q 613 284 603 232 q 592 180 592 142 q 592 49 654 49 q 695 49 722 82 q 749 115 764 179 q 778 244 778 291 q 778 379 719 379 z"},"m":{"x_min":0,"x_max":833,"ha":833,"o":"m 322 0 l 383 310 q 395 371 395 395 q 395 431 376 450 q 358 470 316 470 q 259 470 217 421 q 175 373 162 295 l 104 0 l 17 0 l 98 416 q 107 462 117 528 l 200 528 q 200 523 195 490 q 189 458 186 438 l 188 438 q 223 494 259 516 q 295 538 345 538 q 404 538 438 509 q 473 479 480 424 q 521 488 560 513 q 599 538 650 538 q 716 538 751 502 q 787 466 787 399 q 787 368 776 319 l 714 0 l 627 0 l 688 310 q 700 371 700 395 q 700 431 682 450 q 663 470 621 470 q 564 470 522 422 q 480 375 467 296 l 409 0 z"},"#":{"x_min":0,"x_max":556,"ha":556,"o":"m 452 432 l 414 252 l 541 252 l 541 199 l 403 199 l 360 0 l 306 0 l 348 199 l 171 199 l 130 0 l 76 0 l 117 199 l 19 199 l 19 252 l 129 252 l 167 432 l 44 432 l 44 485 l 178 485 l 221 684 l 275 684 l 232 485 l 409 485 l 452 684 l 506 684 l 463 485 l 566 485 l 566 432 z m 222 432 l 183 252 l 360 252 l 398 432 z"},",":{"x_min":0,"x_max":278,"ha":278,"o":"m 78 -128 l 18 -128 q 77 -61 89 0 l 46 0 l 66 107 l 162 107 l 146 25 q 137 -21 121 -58 q 105 -95 78 -128 z"},"n":{"x_min":0,"x_max":556,"ha":556,"o":"m 350 0 l 412 315 q 420 358 420 388 q 420 470 333 470 q 271 470 225 423 q 178 376 162 296 l 104 0 l 17 0 l 98 416 q 107 462 117 528 l 200 528 q 200 523 195 490 q 189 458 186 438 l 188 438 q 228 494 269 516 q 310 538 366 538 q 438 538 474 502 q 511 466 511 399 q 511 368 500 319 l 438 0 z"},"h":{"x_min":0,"x_max":556,"ha":556,"o":"m 187 438 q 228 494 268 516 q 309 538 365 538 q 438 538 474 502 q 510 466 510 399 q 510 368 500 319 l 438 0 l 350 0 l 411 315 q 420 358 420 388 q 420 470 333 470 q 271 470 224 423 q 177 376 162 296 l 104 0 l 17 0 l 157 725 l 245 725 l 208 536 q 200 487 186 438 z"},"z":{"x_min":0,"x_max":500,"ha":500,"o":"m -6 0 l 5 67 l 368 460 l 91 460 l 104 528 l 486 528 l 475 461 l 112 68 l 416 68 l 403 0 z"},"B":{"x_min":0,"x_max":667,"ha":667,"o":"m 164 688 l 413 688 q 515 688 574 646 q 633 604 633 531 q 633 392 467 363 q 535 352 572 312 q 609 272 609 214 q 609 110 533 55 q 457 0 321 0 l 31 0 z m 201 396 l 362 396 q 536 396 536 521 q 536 613 405 613 l 243 613 z m 138 75 l 318 75 q 420 75 468 111 q 516 146 516 216 q 516 268 477 295 q 438 323 365 323 l 187 323 z"},"K":{"x_min":0,"x_max":667,"ha":667,"o":"m 499 0 l 269 329 l 176 266 l 124 0 l 31 0 l 164 688 l 257 688 l 191 351 l 259 414 l 584 688 l 704 688 l 337 380 l 609 0 z"},"R":{"x_min":0,"x_max":722,"ha":722,"o":"m 513 0 l 395 286 l 179 286 l 124 0 l 31 0 l 164 688 l 463 688 q 567 688 629 638 q 691 588 691 507 q 691 416 639 362 q 586 308 483 294 l 614 0 z m 418 359 q 507 359 552 396 q 597 433 597 500 q 597 555 560 584 q 524 613 452 613 l 243 613 l 194 359 z"},"T":{"x_min":0,"x_max":611,"ha":611,"o":"m 419 612 l 300 0 l 207 0 l 326 612 l 90 612 l 104 688 l 670 688 l 655 612 z"},"P":{"x_min":0,"x_max":667,"ha":667,"o":"m 416 688 q 529 688 595 637 q 661 586 661 498 q 661 391 586 329 q 512 268 383 268 l 176 268 l 124 0 l 31 0 l 164 688 z m 190 342 l 379 342 q 566 342 566 494 q 566 552 527 583 q 489 613 414 613 l 243 613 z"},"|":{"x_min":0,"x_max":260,"ha":260,"o":"m 104 -222 l 104 725 l 185 725 l 185 -222 z"},"t":{"x_min":0,"x_max":278,"ha":278,"o":"m 134 -10 q 93 -10 69 15 q 45 40 45 81 q 45 108 53 145 l 114 464 l 53 464 l 66 528 l 128 528 l 179 646 l 238 646 l 215 528 l 312 528 l 300 464 l 202 464 l 141 149 q 135 120 135 103 q 135 60 179 60 q 200 60 228 67 l 219 2 q 170 -10 134 -10 z"},"M":{"x_min":0,"x_max":833,"ha":833,"o":"m 616 0 l 704 453 q 721 543 735 600 q 691 507 665 463 l 397 0 l 336 0 l 246 463 q 243 477 226 600 q 222 570 211 508 q 201 446 114 0 l 31 0 l 164 688 l 279 688 l 372 211 q 375 192 387 111 l 438 215 l 708 688 l 833 688 l 700 0 z"},"g":{"x_min":0,"x_max":556,"ha":556,"o":"m 194 -208 q 28 -208 2 -84 l 82 -64 q 99 -141 196 -141 q 265 -141 303 -105 q 341 -69 357 13 l 374 98 l 373 98 q 342 55 319 36 q 296 17 267 6 q 238 -4 200 -4 q 125 -4 80 45 q 34 94 34 175 q 34 240 52 315 q 71 391 103 440 q 134 490 180 514 q 225 538 287 538 q 346 538 387 510 q 428 482 439 438 l 440 438 q 444 456 453 490 q 461 524 464 528 l 547 528 l 538 488 l 523 419 l 445 15 q 421 -103 361 -155 q 300 -208 194 -208 z m 126 182 q 126 123 152 92 q 178 61 228 61 q 280 61 323 99 q 366 138 390 205 q 414 271 414 344 q 414 405 382 439 q 351 473 296 473 q 252 473 223 455 q 194 437 174 398 q 154 359 140 295 q 126 231 126 182 z"},"j":{"x_min":0,"x_max":222,"ha":222,"o":"m 141 641 l 157 725 l 245 725 l 229 641 z m -49 -208 q -76 -208 -112 -201 l -101 -134 q -75 -138 -60 -138 q -31 -138 -17 -118 q -2 -97 6 -52 l 119 528 l 207 528 l 91 -65 q 76 -143 42 -175 q 8 -208 -49 -208 z"},"i":{"x_min":0,"x_max":222,"ha":222,"o":"m 140 641 l 157 725 l 245 725 l 228 641 z m 16 0 l 119 528 l 207 528 l 104 0 z"},"y":{"x_min":0,"x_max":500,"ha":500,"o":"m 8 -208 q -27 -208 -57 -201 l -42 -135 q -20 -139 -4 -139 q 42 -139 78 -108 q 113 -77 147 -17 l 161 6 l 55 528 l 144 528 l 199 236 q 206 197 212 153 q 219 109 219 96 q 224 106 232 122 q 240 138 453 528 l 550 528 l 245 0 q 190 -94 157 -132 q 125 -170 89 -189 q 53 -208 8 -208 z"},"@":{"x_min":0,"x_max":1015,"ha":1015,"o":"m 945 369 q 945 278 917 204 q 889 131 839 91 q 789 51 727 51 q 677 51 651 73 q 625 95 625 137 l 627 171 l 624 171 q 592 111 544 81 q 497 51 441 51 q 365 51 323 101 q 280 150 280 239 q 280 319 312 388 q 343 457 400 497 q 457 538 525 538 q 632 538 672 449 l 675 449 l 694 527 l 771 527 l 714 280 q 696 200 696 156 q 696 110 735 110 q 774 110 807 144 q 840 178 859 237 q 878 296 878 368 q 878 455 841 523 q 803 590 732 627 q 662 663 567 663 q 449 663 358 611 q 267 559 215 460 q 164 362 164 240 q 164 146 202 73 q 240 1 313 -37 q 385 -76 482 -76 q 635 -76 776 3 l 803 -51 q 732 -94 650 -116 q 567 -138 482 -138 q 365 -138 277 -92 q 189 -45 142 41 q 95 127 95 240 q 95 376 156 488 q 216 600 324 662 q 432 725 566 725 q 684 725 769 680 q 854 636 900 556 q 945 475 945 369 z m 649 365 q 649 415 617 445 q 584 476 531 476 q 481 476 443 445 q 405 414 383 358 q 361 302 361 240 q 361 181 384 148 q 407 115 456 115 q 495 115 530 136 q 566 158 593 196 q 620 233 634 281 q 649 330 649 365 z"},".":{"x_min":0,"x_max":278,"ha":278,"o":"m 39 0 l 60 107 l 155 107 l 134 0 z"},"p":{"x_min":0,"x_max":556,"ha":556,"o":"m 271 -10 q 210 -10 173 16 q 135 41 119 87 l 117 87 q 117 82 113 55 q 108 29 62 -208 l -25 -208 l 97 420 q 108 475 114 528 l 195 528 q 195 515 192 488 q 189 461 187 450 l 189 450 q 225 496 264 517 q 304 538 362 538 q 438 538 481 492 q 524 446 524 365 q 524 266 494 173 q 464 80 409 35 q 355 -10 271 -10 z m 336 470 q 288 470 254 450 q 219 431 195 391 q 171 351 158 291 q 144 231 144 184 q 144 123 175 89 q 206 55 261 55 q 322 55 357 92 q 392 129 412 209 q 432 290 432 350 q 432 410 409 440 q 386 470 336 470 z"},"X":{"x_min":0,"x_max":667,"ha":667,"o":"m 488 0 l 340 296 l 84 0 l -19 0 l 300 364 l 134 688 l 231 688 l 363 419 l 595 688 l 698 688 l 405 358 l 585 0 z"},"*":{"x_min":0,"x_max":389,"ha":389,"o":"m 265 544 l 394 594 l 416 530 l 278 494 l 369 372 l 311 337 l 237 463 l 161 338 l 103 373 l 195 494 l 59 530 l 81 595 l 211 543 l 205 688 l 271 688 z"},"Y":{"x_min":0,"x_max":667,"ha":667,"o":"m 328 0 l 235 0 l 292 285 l 104 688 l 200 688 l 349 359 l 623 688 l 727 688 l 383 285 z"},"c":{"x_min":0,"x_max":500,"ha":500,"o":"m 229 60 q 329 60 370 172 l 446 148 q 387 -10 227 -10 q 133 -10 83 43 q 33 97 33 193 q 33 291 68 375 q 104 458 162 498 q 220 538 305 538 q 388 538 436 497 q 484 455 489 383 l 402 371 q 399 418 373 444 q 347 469 302 469 q 241 469 203 436 q 165 403 144 332 q 123 260 123 190 q 123 60 229 60 z"},"!":{"x_min":0,"x_max":278,"ha":278,"o":"m 161 194 l 88 194 l 172 688 l 268 688 z m 38 0 l 57 98 l 152 98 l 132 0 z"},"/":{"x_min":0,"x_max":278,"ha":278,"o":"m -57 -10 l 287 725 l 364 725 l 22 -10 z"},"[":{"x_min":0,"x_max":278,"ha":278,"o":"m -19 -208 l 162 725 l 360 725 l 348 662 l 234 662 l 78 -145 l 191 -145 l 179 -208 z"},"6":{"x_min":0,"x_max":556,"ha":556,"o":"m 261 -10 q 167 -10 111 56 q 56 121 56 227 q 56 344 97 459 q 138 574 208 636 q 279 698 372 698 q 445 698 492 663 q 539 628 556 562 l 475 544 q 463 584 435 605 q 407 627 368 627 q 288 627 231 556 q 175 484 150 354 q 179 398 224 422 q 269 445 324 445 q 408 445 459 394 q 511 342 511 260 q 511 186 479 123 q 446 61 389 25 q 332 -10 261 -10 z m 141 206 q 141 142 174 101 q 207 61 263 61 q 331 61 375 116 q 420 171 420 255 q 420 311 391 344 q 362 377 308 377 q 262 377 224 356 q 186 335 163 297 q 141 259 141 206 z"},"r":{"x_min":0,"x_max":333,"ha":333,"o":"m 351 458 q 329 464 307 464 q 255 464 214 411 q 173 357 158 275 l 104 0 l 17 0 l 96 405 l 108 473 l 117 528 l 200 528 l 183 420 l 185 420 q 217 485 248 512 q 279 538 320 538 q 343 538 367 531 z"},"2":{"x_min":0,"x_max":556,"ha":556,"o":"m -6 0 l 6 62 q 33 107 66 143 q 99 179 135 208 q 171 237 209 261 q 246 285 281 307 q 316 329 346 351 q 377 373 400 398 q 423 423 436 452 q 449 482 449 519 q 449 567 419 596 q 388 626 336 626 q 283 626 244 597 q 204 568 186 510 l 103 528 q 129 611 190 655 q 250 698 342 698 q 431 698 486 650 q 542 603 542 526 q 542 475 517 427 q 492 380 442 336 q 392 293 291 229 q 219 184 175 147 q 131 110 108 75 l 463 75 l 449 0 z"},"{":{"x_min":0,"x_max":334,"ha":334,"o":"m 179 -208 q 125 -208 93 -175 q 61 -143 61 -85 q 61 -55 65 -28 l 93 112 q 97 133 97 149 q 97 190 74 208 q 52 226 10 228 l 22 290 q 76 292 107 320 q 139 348 150 405 l 184 582 q 198 651 235 688 q 271 725 341 725 l 407 725 l 395 662 l 364 662 q 320 662 297 639 q 273 616 261 557 l 228 383 q 218 336 186 303 q 154 271 109 260 l 109 259 q 143 250 162 226 q 182 202 182 164 q 182 150 179 135 l 149 -21 q 147 -33 145 -52 q 144 -72 143 -81 l 143 -83 q 143 -111 160 -128 q 177 -145 214 -145 l 238 -145 l 226 -208 z"},"9":{"x_min":0,"x_max":556,"ha":556,"o":"m 438 334 q 373 235 273 235 q 215 235 171 260 q 127 285 104 330 q 80 375 80 430 q 80 504 112 566 q 144 628 202 663 q 261 698 333 698 q 429 698 482 636 q 536 574 536 467 q 536 392 517 309 q 499 227 468 166 q 438 105 398 66 q 359 26 314 8 q 269 -10 221 -10 q 71 -10 34 125 l 111 147 q 123 106 152 83 q 181 61 225 61 q 302 61 357 132 q 411 202 438 334 z m 452 497 q 452 556 418 591 q 384 627 331 627 q 259 627 214 574 q 169 521 169 429 q 169 370 200 337 q 230 304 283 304 q 329 304 369 329 q 410 354 431 396 q 452 437 452 497 z"}," ":{"x_min":0,"x_max":278,"ha":278,"o":""},"I":{"x_min":0,"x_max":278,"ha":278,"o":"m 40 0 l 173 688 l 267 688 l 133 0 z"},"H":{"x_min":0,"x_max":722,"ha":722,"o":"m 499 0 l 561 319 l 186 319 l 124 0 l 31 0 l 165 688 l 258 688 l 201 397 l 576 397 l 632 688 l 723 688 l 589 0 z"},"4":{"x_min":0,"x_max":556,"ha":556,"o":"m 413 156 l 383 0 l 295 0 l 325 156 l 6 156 l 20 224 l 419 688 l 517 688 l 427 225 l 519 225 l 505 156 z m 403 565 l 111 225 l 339 225 z"},"~":{"x_min":0,"x_max":584,"ha":584,"o":"m 427 270 q 393 270 358 281 q 322 292 287 304 q 224 326 181 326 q 148 326 120 316 q 91 306 60 283 l 60 353 q 114 394 188 394 q 238 394 303 372 q 375 347 396 342 q 417 337 435 337 q 498 337 554 382 l 554 309 q 524 289 496 279 q 468 270 427 270 z"},"D":{"x_min":0,"x_max":722,"ha":722,"o":"m 363 688 q 516 688 603 608 q 690 527 690 386 q 690 271 640 185 q 589 98 495 49 q 400 0 281 0 l 31 0 l 164 688 z m 138 75 l 277 75 q 372 75 445 113 q 518 150 556 221 q 595 292 595 387 q 595 494 534 554 q 472 613 361 613 l 243 613 z"},"^":{"x_min":0,"x_max":469,"ha":469,"o":"m 399 329 l 248 638 l 99 329 l 20 329 l 199 688 l 298 688 l 479 329 z"},"0":{"x_min":0,"x_max":556,"ha":556,"o":"m 357 698 q 447 698 497 638 q 548 578 548 471 q 548 346 510 229 q 472 112 402 51 q 332 -10 232 -10 q 144 -10 94 53 q 43 116 43 227 q 43 315 65 406 q 87 497 126 563 q 165 629 222 664 q 279 698 357 698 z m 240 62 q 313 62 360 114 q 407 166 435 275 q 462 384 462 475 q 462 551 433 589 q 404 627 352 627 q 278 627 231 575 q 185 523 157 414 q 129 305 129 214 q 129 138 158 100 q 187 62 240 62 z"},"F":{"x_min":0,"x_max":611,"ha":611,"o":"m 243 612 l 193 356 l 582 356 l 566 279 l 178 279 l 124 0 l 31 0 l 164 688 l 658 688 l 643 612 z"},"`":{"x_min":0,"x_max":333,"ha":333,"o":"m 201 586 l 63 722 l 66 736 l 167 736 l 246 596 l 244 586 z"},"k":{"x_min":0,"x_max":500,"ha":500,"o":"m 352 0 l 221 245 l 139 185 l 104 0 l 17 0 l 157 725 l 245 725 l 158 277 l 257 370 l 434 528 l 542 528 l 283 301 l 447 0 z"},"u":{"x_min":0,"x_max":556,"ha":556,"o":"m 203 528 l 141 213 q 132 170 132 140 q 132 59 220 59 q 281 59 328 105 q 375 152 391 232 l 448 528 l 536 528 l 455 113 q 445 66 436 0 l 353 0 q 353 5 358 38 q 363 70 367 90 l 365 90 q 325 34 284 12 q 243 -9 187 -9 q 115 -9 78 26 q 42 62 42 129 q 42 161 52 209 l 114 528 z"},"]":{"x_min":0,"x_max":278,"ha":278,"o":"m -83 -208 l -70 -145 l 43 -145 l 200 662 l 86 662 l 98 725 l 297 725 l 116 -208 z"},"U":{"x_min":0,"x_max":722,"ha":722,"o":"m 319 -10 q 206 -10 140 49 q 75 108 75 210 q 75 232 78 262 q 82 292 86 310 l 159 688 l 252 688 l 173 276 q 165 234 165 207 q 165 140 208 103 q 250 66 327 66 q 515 66 552 264 l 634 688 l 727 688 l 644 259 q 618 125 536 58 q 454 -10 319 -10 z"},"o":{"x_min":0,"x_max":556,"ha":556,"o":"m 524 333 q 524 270 505 201 q 485 133 449 85 q 413 38 360 14 q 307 -10 240 -10 q 144 -10 88 48 q 33 105 33 205 q 35 304 69 381 q 103 458 164 498 q 224 538 313 538 q 416 538 470 484 q 524 431 524 333 z m 434 333 q 434 473 312 473 q 247 473 207 439 q 167 405 145 336 q 123 268 123 203 q 123 131 154 93 q 186 55 245 55 q 295 55 326 72 q 356 89 379 125 q 402 161 417 216 q 431 272 434 333 z"},"N":{"x_min":0,"x_max":722,"ha":722,"o":"m 482 0 l 223 591 q 212 507 202 460 l 114 0 l 31 0 l 164 688 l 268 688 l 528 95 q 541 187 550 233 l 639 688 l 723 688 l 589 0 z"},"+":{"x_min":0,"x_max":584,"ha":584,"o":"m 342 297 l 342 88 l 271 88 l 271 297 l 63 297 l 63 368 l 271 368 l 271 577 l 342 577 l 342 368 l 549 368 l 549 297 z"},"G":{"x_min":0,"x_max":778,"ha":778,"o":"m 362 -10 q 213 -10 131 66 q 49 143 49 280 q 49 401 101 497 q 152 593 246 646 q 340 698 461 698 q 569 698 639 657 q 708 616 735 536 l 641 510 q 623 566 575 594 q 528 622 455 622 q 361 622 291 580 q 220 538 183 461 q 145 383 145 282 q 145 179 203 122 q 260 66 365 66 q 433 66 494 85 q 556 104 601 142 l 626 266 l 420 266 l 436 344 l 728 344 l 679 103 q 610 44 533 17 q 456 -10 362 -10 z"},"q":{"x_min":0,"x_max":556,"ha":556,"o":"m 196 -10 q 119 -10 76 36 q 34 82 34 163 q 34 262 64 355 q 94 448 148 493 q 203 538 287 538 q 347 538 385 512 q 423 487 438 441 l 441 441 q 446 467 454 499 q 462 530 465 535 l 549 535 q 538 497 518 391 l 401 -208 l 313 -208 l 355 7 l 371 78 l 369 78 q 333 32 293 11 q 254 -10 196 -10 z m 221 58 q 270 58 304 77 q 338 97 362 137 q 386 177 400 237 q 414 296 414 344 q 414 405 383 439 q 352 473 296 473 q 237 473 202 437 q 167 402 146 322 q 125 241 125 178 q 125 118 148 88 q 171 58 221 58 z"},"d":{"x_min":0,"x_max":556,"ha":556,"o":"m 196 -10 q 119 -10 76 36 q 34 82 34 163 q 34 262 64 355 q 94 448 148 493 q 203 538 287 538 q 347 538 385 512 q 423 487 438 441 l 441 441 l 455 520 l 495 725 l 583 725 l 463 109 q 449 40 444 0 l 360 0 q 360 25 371 78 l 368 78 q 333 32 293 11 q 253 -10 196 -10 z m 221 58 q 270 58 304 77 q 338 97 362 137 q 386 177 400 237 q 414 296 414 344 q 414 405 383 439 q 352 473 296 473 q 237 473 202 437 q 167 402 146 322 q 125 241 125 178 q 125 118 148 88 q 171 58 221 58 z"},"1":{"x_min":0,"x_max":556,"ha":556,"o":"m 26 0 l 41 75 l 216 75 l 317 597 l 141 488 l 158 576 l 342 688 l 423 688 l 304 75 l 472 75 l 457 0 z"},"5":{"x_min":0,"x_max":556,"ha":556,"o":"m 167 688 l 559 688 l 544 613 l 233 613 l 178 395 q 202 416 237 427 q 272 439 313 439 q 403 439 458 387 q 513 335 513 247 q 513 127 443 59 q 373 -10 247 -10 q 65 -10 22 151 l 102 172 q 117 116 156 89 q 194 62 251 62 q 333 62 376 108 q 420 153 420 237 q 420 297 387 332 q 353 367 296 367 q 217 367 159 318 l 73 318 z"}}}
